<?xml version="1.0" encoding="UTF-8" standalone="no"?>
<!DOCTYPE svg PUBLIC "-//W3C//DTD SVG 1.1//EN"
 "http://www.w3.org/Graphics/SVG/1.1/DTD/svg11.dtd">
<!-- Generated by graphviz version 12.2.1 (20241206.2353)
 -->
<!-- Pages: 1 -->
<svg width="92pt" height="188pt"
 viewBox="0.00 0.00 92.34 188.00" xmlns="http://www.w3.org/2000/svg" xmlns:xlink="http://www.w3.org/1999/xlink">
<g id="graph0" class="graph" transform="scale(1 1) rotate(0) translate(4 184)">
<polygon fill="white" stroke="none" points="-4,4 -4,-184 88.34,-184 88.34,4 -4,4"/>
<!-- C -->
<g id="node1" class="node">
<title>C</title>
<ellipse fill="grey" stroke="grey" cx="57.34" cy="-162" rx="27" ry="18"/>
<text text-anchor="middle" x="57.34" y="-156.95" font-family="Times,serif" font-size="14.00">C</text>
</g>
<!-- Z(X) -->
<g id="node2" class="node">
<title>Z(X)</title>
<ellipse fill="lightblue" stroke="lightblue" cx="29.34" cy="-90" rx="29.34" ry="18"/>
<text text-anchor="middle" x="29.34" y="-84.95" font-family="Times,serif" font-size="14.00">Z(X)</text>
</g>
<!-- C&#45;&gt;Z(X) -->
<g id="edge1" class="edge">
<title>C&#45;&gt;Z(X)</title>
<path fill="none" stroke="black" d="M50.71,-144.41C47.62,-136.68 43.85,-127.27 40.35,-118.52"/>
<polygon fill="black" stroke="black" points="43.65,-117.35 36.69,-109.36 37.15,-119.95 43.65,-117.35"/>
</g>
<!-- Y -->
<g id="node3" class="node">
<title>Y</title>
<ellipse fill="lightgreen" stroke="lightgreen" cx="57.34" cy="-18" rx="27" ry="18"/>
<text text-anchor="middle" x="57.34" y="-12.95" font-family="Times,serif" font-size="14.00">Y</text>
</g>
<!-- C&#45;&gt;Y -->
<g id="edge3" class="edge">
<title>C&#45;&gt;Y</title>
<path fill="none" stroke="black" d="M61.4,-143.93C63.65,-133.6 66.21,-120.12 67.34,-108 68.83,-92.07 68.83,-87.93 67.34,-72 66.58,-63.86 65.18,-55.1 63.65,-47.1"/>
<polygon fill="black" stroke="black" points="67.14,-46.65 61.71,-37.55 60.28,-48.05 67.14,-46.65"/>
</g>
<!-- Z(X)&#45;&gt;Y -->
<g id="edge2" class="edge">
<title>Z(X)&#45;&gt;Y</title>
<path fill="none" stroke="black" d="M36.12,-72.05C39.22,-64.32 42.96,-54.96 46.44,-46.27"/>
<polygon fill="black" stroke="black" points="49.6,-47.78 50.07,-37.19 43.1,-45.18 49.6,-47.78"/>
</g>
</g>
</svg>
