<?xml version="1.0" encoding="UTF-8" standalone="no"?>
<!DOCTYPE svg PUBLIC "-//W3C//DTD SVG 1.1//EN"
 "http://www.w3.org/Graphics/SVG/1.1/DTD/svg11.dtd">
<!-- Generated by graphviz version 12.2.1 (20241206.2353)
 -->
<!-- Pages: 1 -->
<svg width="629pt" height="229pt"
 viewBox="0.00 0.00 628.55 228.50" xmlns="http://www.w3.org/2000/svg" xmlns:xlink="http://www.w3.org/1999/xlink">
<g id="graph0" class="graph" transform="scale(1 1) rotate(0) translate(4 224.5)">
<polygon fill="white" stroke="none" points="-4,4 -4,-224.5 624.55,-224.5 624.55,4 -4,4"/>
<g id="clust1" class="cluster">
<title>cluster_data</title>
<polygon fill="none" stroke="black" points="237.07,-8 237.07,-156.5 307.07,-156.5 307.07,-8 237.07,-8"/>
<text text-anchor="middle" x="287.82" y="-15.2" font-family="Times,serif" font-size="14.00">data</text>
</g>
<!-- c -->
<g id="node1" class="node">
<title>c</title>
<ellipse fill="grey" stroke="black" cx="393.07" cy="-202.5" rx="27" ry="18"/>
<text text-anchor="middle" x="393.07" y="-197.45" font-family="Times,serif" font-size="14.00">c</text>
</g>
<!-- z -->
<g id="node9" class="node">
<title>z</title>
<ellipse fill="white" stroke="black" cx="272.07" cy="-130.5" rx="27" ry="18"/>
<text text-anchor="middle" x="272.07" y="-125.45" font-family="Times,serif" font-size="14.00">z</text>
</g>
<!-- c&#45;&gt;z -->
<g id="edge1" class="edge">
<title>c&#45;&gt;z</title>
<path fill="none" stroke="black" d="M372.57,-190.23C356.34,-181.24 333.14,-168.26 313.07,-156.5 309.13,-154.2 305.01,-151.73 300.96,-149.29"/>
<polygon fill="black" stroke="black" points="302.83,-146.33 292.47,-144.13 299.19,-152.31 302.83,-146.33"/>
</g>
<!-- y -->
<g id="node10" class="node">
<title>y</title>
<ellipse fill="grey" stroke="black" cx="272.07" cy="-58.5" rx="27" ry="18"/>
<text text-anchor="middle" x="272.07" y="-53.45" font-family="Times,serif" font-size="14.00">y</text>
</g>
<!-- c&#45;&gt;y -->
<g id="edge6" class="edge">
<title>c&#45;&gt;y</title>
<path fill="none" stroke="black" d="M377.23,-187.48C367.82,-178.88 355.86,-167.45 346.07,-156.5 325.2,-133.16 303.76,-104.43 289.37,-84.32"/>
<polygon fill="black" stroke="black" points="292.41,-82.57 283.77,-76.44 286.71,-86.62 292.41,-82.57"/>
</g>
<!-- beta_cz -->
<g id="node2" class="node">
<title>beta_cz</title>
<ellipse fill="white" stroke="black" cx="39.07" cy="-202.5" rx="39.07" ry="18"/>
<text text-anchor="middle" x="39.07" y="-197.45" font-family="Times,serif" font-size="14.00">beta_cz</text>
</g>
<!-- beta_cz&#45;&gt;z -->
<g id="edge2" class="edge">
<title>beta_cz&#45;&gt;z</title>
<path fill="none" stroke="black" d="M69.19,-190.52C75.09,-188.45 81.26,-186.36 87.07,-184.5 138.54,-168.03 198.83,-151.21 236.24,-141.06"/>
<polygon fill="black" stroke="black" points="236.88,-144.51 245.62,-138.53 235.06,-137.76 236.88,-144.51"/>
</g>
<!-- beta_cy -->
<g id="node3" class="node">
<title>beta_cy</title>
<ellipse fill="white" stroke="black" cx="395.07" cy="-130.5" rx="39.58" ry="18"/>
<text text-anchor="middle" x="395.07" y="-125.45" font-family="Times,serif" font-size="14.00">beta_cy</text>
</g>
<!-- beta_cy&#45;&gt;y -->
<g id="edge7" class="edge">
<title>beta_cy&#45;&gt;y</title>
<path fill="none" stroke="black" d="M371.06,-115.84C351.23,-104.55 323,-88.49 301.76,-76.4"/>
<polygon fill="black" stroke="black" points="303.69,-73.47 293.27,-71.57 300.23,-79.55 303.69,-73.47"/>
</g>
<!-- beta_xz -->
<g id="node4" class="node">
<title>beta_xz</title>
<ellipse fill="white" stroke="black" cx="136.07" cy="-202.5" rx="39.58" ry="18"/>
<text text-anchor="middle" x="136.07" y="-197.45" font-family="Times,serif" font-size="14.00">beta_xz</text>
</g>
<!-- beta_xz&#45;&gt;z -->
<g id="edge3" class="edge">
<title>beta_xz&#45;&gt;z</title>
<path fill="none" stroke="black" d="M161.65,-188.33C184.17,-176.74 217.03,-159.83 241.04,-147.47"/>
<polygon fill="black" stroke="black" points="242.42,-150.69 249.71,-143.01 239.22,-144.47 242.42,-150.69"/>
</g>
<!-- beta_zy -->
<g id="node5" class="node">
<title>beta_zy</title>
<ellipse fill="white" stroke="black" cx="492.07" cy="-130.5" rx="39.58" ry="18"/>
<text text-anchor="middle" x="492.07" y="-125.45" font-family="Times,serif" font-size="14.00">beta_zy</text>
</g>
<!-- beta_zy&#45;&gt;y -->
<g id="edge8" class="edge">
<title>beta_zy&#45;&gt;y</title>
<path fill="none" stroke="black" d="M461.66,-118.52C455.84,-116.47 449.78,-114.39 444.07,-112.5 397.16,-96.97 342.58,-80.41 307.7,-70.01"/>
<polygon fill="black" stroke="black" points="308.7,-66.66 298.12,-67.16 306.7,-73.36 308.7,-66.66"/>
</g>
<!-- beta_z -->
<g id="node6" class="node">
<title>beta_z</title>
<ellipse fill="white" stroke="black" cx="229.07" cy="-202.5" rx="34.97" ry="18"/>
<text text-anchor="middle" x="229.07" y="-197.45" font-family="Times,serif" font-size="14.00">beta_z</text>
</g>
<!-- beta_z&#45;&gt;z -->
<g id="edge4" class="edge">
<title>beta_z&#45;&gt;z</title>
<path fill="none" stroke="black" d="M239.26,-184.91C244.37,-176.6 250.66,-166.35 256.37,-157.06"/>
<polygon fill="black" stroke="black" points="259.2,-159.13 261.45,-148.78 253.24,-155.47 259.2,-159.13"/>
</g>
<!-- beta_y -->
<g id="node7" class="node">
<title>beta_y</title>
<ellipse fill="white" stroke="black" cx="585.07" cy="-130.5" rx="35.49" ry="18"/>
<text text-anchor="middle" x="585.07" y="-125.45" font-family="Times,serif" font-size="14.00">beta_y</text>
</g>
<!-- beta_y&#45;&gt;y -->
<g id="edge9" class="edge">
<title>beta_y&#45;&gt;y</title>
<path fill="none" stroke="black" d="M558.33,-118.32C552.69,-116.2 546.73,-114.14 541.07,-112.5 459.88,-89.01 361.9,-72.61 309.48,-64.76"/>
<polygon fill="black" stroke="black" points="310.3,-61.34 299.89,-63.35 309.28,-68.27 310.3,-61.34"/>
</g>
<!-- sigma -->
<g id="node8" class="node">
<title>sigma</title>
<ellipse fill="white" stroke="black" cx="315.07" cy="-202.5" rx="33.44" ry="18"/>
<text text-anchor="middle" x="315.07" y="-197.45" font-family="Times,serif" font-size="14.00">sigma</text>
</g>
<!-- sigma&#45;&gt;z -->
<g id="edge5" class="edge">
<title>sigma&#45;&gt;z</title>
<path fill="none" stroke="black" d="M304.88,-184.91C299.77,-176.6 293.47,-166.35 287.77,-157.06"/>
<polygon fill="black" stroke="black" points="290.9,-155.47 282.68,-148.78 284.93,-159.13 290.9,-155.47"/>
</g>
<!-- z&#45;&gt;y -->
<g id="edge10" class="edge">
<title>z&#45;&gt;y</title>
<path fill="none" stroke="black" d="M272.07,-112.2C272.07,-104.91 272.07,-96.23 272.07,-88.04"/>
<polygon fill="black" stroke="black" points="275.57,-88.12 272.07,-78.12 268.57,-88.12 275.57,-88.12"/>
</g>
</g>
</svg>
